<?xml version="1.0" standalone="no"?><!DOCTYPE svg PUBLIC "-//W3C//DTD SVG 1.1//EN" "http://www.w3.org/Graphics/SVG/1.1/DTD/svg11.dtd"><svg t="1606723269749" class="icon" viewBox="0 0 1024 1024" version="1.1" xmlns="http://www.w3.org/2000/svg" p-id="3175" xmlns:xlink="http://www.w3.org/1999/xlink" width="200" height="200"><defs><style type="text/css"></style></defs><path d="M709.677645 674.040422a56.656871 56.656871 0 0 1-56.656871 57.365082 57.365082 57.365082 0 1 1 57.365082-57.365082z m-283.284356 0a63.73898 63.73898 0 1 1-63.73898-63.73898 70.821089 70.821089 0 0 1 60.906137 63.73898z m-63.73898-292.491097a381.725669 381.725669 0 0 0 194.049784 159.34745A595.605358 595.605358 0 0 0 658.686461 567.100578a260.621607 260.621607 0 0 1 177.760933 82.860674 216.004321 216.004321 0 0 1-6.373898 63.73898 363.312186 363.312186 0 0 1-266.995505 163.596715 49.574762 49.574762 0 0 0-44.617286-19.121694c-31.86949 0-50.991184 12.747796-50.991184 38.243388s25.495592 38.243388 50.991184 38.243388 50.991184-12.747796 50.991184-31.86949a538.240276 538.240276 0 0 0 108.356266-25.495592 439.090751 439.090751 0 0 0 126.769749-82.860674l19.121694-19.121694a305.947104 305.947104 0 0 1-305.238893 212.463267A311.612791 311.612791 0 0 1 194.808329 654.918728v-70.821089a245.040968 245.040968 0 0 0 145.891443-141.642178z m575.775453 191.21694v-31.86949a458.920656 458.920656 0 0 0-114.730164-324.360587A489.373724 489.373724 0 0 0 690.555951 127.301616 170.678824 170.678824 0 0 0 512.086807 0.531866C417.186548 6.905764 336.450507 64.270846 327.951976 133.675514A378.892826 378.892826 0 0 0 194.808329 222.910086 448.297493 448.297493 0 0 0 80.078165 547.270673v38.243388A89.234572 89.234572 0 0 0 53.166151 674.040422a81.444252 81.444252 0 0 0 63.73898 63.73898 119.68764 119.68764 0 0 0 50.991184 12.747796 342.065859 342.065859 0 0 0 343.482281 273.369403 342.065859 342.065859 0 0 0 343.482281-273.369403h6.373898a107.648055 107.648055 0 0 0 63.73898-19.121694 97.024892 97.024892 0 0 0 12.747796-158.639239z" p-id="3176" fill="#ff5777"></path></svg>